<?xml version="1.0" encoding="UTF-8" standalone="no"?><!DOCTYPE svg PUBLIC "-//W3C//DTD SVG 1.1//EN" "http://www.w3.org/Graphics/SVG/1.1/DTD/svg11.dtd"><svg width="31px" height="12px" viewBox="0 0 31 12" version="1.1" xmlns="http://www.w3.org/2000/svg" xmlns:xlink="http://www.w3.org/1999/xlink" xml:space="preserve" style="fill-rule:evenodd;clip-rule:evenodd;stroke-linejoin:round;stroke-miterlimit:1.41421;"><path id="Shape" d="M5,0l-5,6l5,6l2,-2l-4,-4l4,-4l-2,-2Z" style="fill:#b2afb9;"/><path id="Shape1" d="M12,0l5,6l-5,6l-2,-2l4,-4l-4,-4l2,-2Z" style="fill:#b2afb9;"/><path id="Shape2" d="M30.067,1.091c-0.607,-0.687 -1.459,-1.036 -2.567,-1.091c-1.132,0 -1.972,0.458 -2.567,1.091c-0.595,0.633 -0.91,1.004 -0.933,1.091c-0.023,-0.087 -0.327,-0.458 -0.933,-1.091c-0.607,-0.633 -1.365,-1.091 -2.567,-1.091c-1.108,0.055 -1.972,0.415 -2.567,1.091c-0.606,0.665 -0.91,1.396 -0.933,2.182c0,0.567 0.105,1.658 0.782,2.912c0.676,1.255 2.73,3.208 6.218,5.815c3.477,-2.607 5.565,-4.549 6.23,-5.815c0.665,-1.265 0.77,-2.367 0.77,-2.912c-0.023,-0.786 -0.327,-1.517 -0.933,-2.204l0,0.022Z" style="fill:#b2afb9;"/></svg>