<?xml version="1.0" encoding="UTF-8" standalone="no"?><!DOCTYPE svg PUBLIC "-//W3C//DTD SVG 1.1//EN" "http://www.w3.org/Graphics/SVG/1.1/DTD/svg11.dtd"><svg width="90px" height="95px" viewBox="0 0 90 95" version="1.1" xmlns="http://www.w3.org/2000/svg" xmlns:xlink="http://www.w3.org/1999/xlink" xml:space="preserve" style="fill-rule:evenodd;clip-rule:evenodd;stroke-linejoin:round;stroke-miterlimit:1.41421;"><g><path d="M68,33l5,-5l4,4l-5,5l5,5l-4,4l-5,-5l-5,5l-4,-4l5,-5l-5,-5l4,-4l5,5Z" style="fill:#6441a4;"/><path d="M39,33l5,-5l4,4l-5,5l5,5l-4,4l-5,-5l-5,5l-4,-4l5,-5l-5,-5l4,-4l5,5Z" style="fill:#6441a4;"/></g><path d="M12,95l-12,0l0,-79l6,-16l84,0l0,58l-24,24l-41,0l-13,13ZM68,68l14,-14l0,-46l-68,0l0,72l12,-12l42,0Z" style="fill:#6441a4;"/></svg>