<?xml version="1.0" encoding="UTF-8" standalone="no"?><!DOCTYPE svg PUBLIC "-//W3C//DTD SVG 1.1//EN" "http://www.w3.org/Graphics/SVG/1.1/DTD/svg11.dtd"><svg width="98px" height="50px" viewBox="0 0 98 50" version="1.1" xmlns="http://www.w3.org/2000/svg" xmlns:xlink="http://www.w3.org/1999/xlink" xml:space="preserve" style="fill-rule:evenodd;clip-rule:evenodd;stroke-linejoin:round;stroke-miterlimit:1.41421;"><path id="withe-text-background" d="M11,11l14.5,0l4.5,4.5l0,4.5l4,-4l11,0l4,4l0,-4l17,0l2,-5l8,0l0,5l4,-4l7,0l0,7.5l-2.5,2.5l2.5,2.5l0,10.5l-53,0l-2,-2l-2,2l-19,0l0,-24Z" style="fill:#fff;"/><path id="logo" d="M25,40l-7,0l-8,-5l0,-25l16,0l5,5l1,2l2,-2l11,0l3,3l0,-3l17,0l2,-5l10,0l0,3l2,-2l9,0l0,9l-2,2l2,2l0,11l-8,5l-6,0l0,-4l-4,4l-6,0l0,-4.5l-4,4.5l-8,0l-3,-3l-3,3c0,0 -8,0 -8,0l-5.5,-6l-2,2l-5.5,0l0,4ZM25,12l-13,0l0,22l6,0l0,-5l7,0l4,-4l0,-9l-4,-4ZM44,34l4,-4l0,-9l-4,-4l-9,0l-4,4l0,9l4,4l9,0ZM56,17l-6,0l0,13l4,4l9,0l4,-4l0,-13l-6,0l0,11l-5,0l0,-11ZM86,34l0,-9l-3,-3l3,-3l0,-6l-6,0l0,3l-5,5l0,-9l-6,0l0,22l6,0l0,-7l5,0l0,7l6,0ZM37,23l5,0l0,5l-5,0l0,-5ZM18,18l5,0l0,5l-5,0l0,-5Z" style="fill:#6441a4;"/></svg>